HIERARCHY
ROOT hip
{
	OFFSET 0.000000 0.000000 0.000000 
	CHANNELS 6 Xposition Yposition Zposition Xrotation Zrotation Yrotation
	JOINT abdomen
	{
		OFFSET 0.000000 3.402643 0.000000 
		CHANNELS 3 Xrotation Zrotation Yrotation
		JOINT chest
		{
			OFFSET 0.000000 8.438565 -0.680529 
			CHANNELS 3 Xrotation Zrotation Yrotation
			JOINT neck
			{
				OFFSET 0.000000 10.207942 -0.272212 
				CHANNELS 3 Xrotation Zrotation Yrotation
				JOINT head
				{
					OFFSET 0.000000 3.130431 0.000000 
					CHANNELS 3 Xrotation Zrotation Yrotation
					End Site
					{
						OFFSET 0.000000 3.130435 0.000000 
					}
				}
			}
			JOINT lCollar
			{
				OFFSET 3.470700 6.669187 -0.816635 
				CHANNELS 3 Yrotation Zrotation Xrotation
				JOINT lShldr
				{
					OFFSET 3.198488 0.000000 0.000000 
					CHANNELS 3 Zrotation Yrotation Xrotation
					JOINT lForeArm
					{
						OFFSET 10.139888 0.000000 0.000000 
						CHANNELS 3 Yrotation Zrotation Xrotation
						JOINT lHand
						{
							OFFSET 8.370511 0.000000 0.000000 
							CHANNELS 3 Zrotation Yrotation Xrotation
							End Site
							{
								OFFSET 4.083176 0.000000 0.000000 
							}
						}
					}
				}
			}
			JOINT rCollar
			{
				OFFSET -3.470700 6.669187 -0.816635 
				CHANNELS 3 Yrotation Zrotation Xrotation
				JOINT rShldr
				{
					OFFSET -3.198488 0.000000 0.000000 
					CHANNELS 3 Zrotation Yrotation Xrotation
					JOINT rForeArm
					{
						OFFSET -10.139888 0.000000 0.000000 
						CHANNELS 3 Yrotation Zrotation Xrotation
						JOINT rHand
						{
							OFFSET -8.370511 0.000000 0.000000 
							CHANNELS 3 Zrotation Yrotation Xrotation
							End Site
							{
								OFFSET -4.083176 0.000000 0.000000 
							}
						}
					}
				}
			}
		}
	}
	JOINT lThigh
	{
		OFFSET 5.308129 -1.633274 1.361059 
		CHANNELS 3 Xrotation Zrotation Yrotation
		JOINT lShin
		{
			OFFSET -2.041588 -20.007561 0.000000 
			CHANNELS 3 Xrotation Zrotation Yrotation
			JOINT lFoot
			{
				OFFSET 0.000000 -19.190928 -1.224953 
				CHANNELS 3 Xrotation Yrotation Zrotation
				End Site
				{
					OFFSET 0.000000 -2.449906 4.627600 
				}
			}
		}
	}
	JOINT rThigh
	{
		OFFSET -5.308129 -1.633274 1.361059 
		CHANNELS 3 Xrotation Zrotation Yrotation
		JOINT rShin
		{
			OFFSET 2.041588 -20.007561 0.000000 
			CHANNELS 3 Xrotation Zrotation Yrotation
			JOINT rFoot
			{
				OFFSET 0.000000 -19.190928 -1.224953 
				CHANNELS 3 Xrotation Yrotation Zrotation
				End Site
				{
					OFFSET 0.000000 -2.449906 4.627600 
				}
			}
		}
	}
}
MOTION
Frames: 14
Frame Time: 0.033333
12.150670 53.311886 -44.109940 0.732422 17.568323 -85.338860 23.910624 4.886707 -11.173420 -6.433331 -0.600491 -4.035062 51.562500 8.076172 2.618559 -62.382816 -10.419922 26.054689 1.088862 -23.512070 9.751657 -3.123091 -34.107433 -9.155422 -132.704895 1.976290 -2.291500 12.044363 -11.665708 -10.919663 -12.993082 25.000000 16.323639 0.838490 -38.410679 1.902389 111.120743 -1.025035 -2.915251 -38.707294 -39.514606 18.467348 -12.832017 6.749871 52.879711 12.529850 -5.679794 -1.610652 -0.267989 -1.650833 -8.111181 -12.906199 -8.673737 -27.378139 11.842685 5.593989 1.337721 0.137629 -5.549467 11.605898 
11.068675 53.470055 -45.069927 0.175781 18.447256 -87.780113 23.581520 3.529203 -10.994843 -6.786080 -0.950745 -3.749473 51.562500 8.076172 2.618559 -62.138672 -9.921875 27.156521 1.399524 -21.150492 10.368135 0.496764 -34.116791 -7.181493 -132.704895 1.976290 -2.291500 12.172450 -11.056414 -9.653893 -12.653581 25.000000 16.047436 -1.513032 -38.787594 8.137612 111.472031 -1.009079 -2.897839 -39.444675 -38.819466 22.657080 -12.665988 6.752850 52.729351 10.409810 -5.708199 -1.405791 -1.713022 -1.154959 -9.297198 -11.522686 -6.766295 -27.088453 8.134986 5.683466 0.951875 0.498132 -3.804145 10.743106 
10.730610 53.501690 -46.023598 -0.566406 19.150391 -90.527344 23.453846 2.121428 -10.649276 -7.129336 -1.300640 -3.474042 51.562500 8.076172 2.618559 -61.533203 -9.287110 28.006237 1.237733 -21.171526 10.244250 2.995511 -32.322468 -4.290819 -132.882507 2.110503 -2.010079 13.280805 -12.247346 -8.543657 -12.078366 25.000000 15.759552 -2.154863 -38.906246 12.079504 111.999237 -0.999816 -2.842493 -40.975052 -37.930000 27.345526 -13.886724 8.767323 50.751938 11.842947 -5.720362 -1.533479 -0.516074 0.169872 -7.978921 -11.561621 -5.467612 -25.456676 6.013366 5.710518 0.727117 0.524663 -2.602431 10.937918 
10.848654 53.414692 -46.911308 -1.123047 19.326170 -93.164063 23.177517 0.639543 -10.124424 -7.472854 -1.650409 -3.189026 51.562500 8.076172 2.618559 -60.605469 -9.042969 28.486326 1.083676 -23.336184 9.741715 5.161851 -28.597528 -1.497869 -132.729004 2.298246 -2.027738 13.811872 -13.484853 -7.346885 -11.742231 25.000000 15.446432 -1.398160 -37.635727 13.355978 111.647766 -1.005988 -2.869615 -41.735485 -37.175953 29.529900 -16.406078 12.046174 46.847164 16.771633 -5.537919 -1.714391 1.110102 1.690215 -7.818494 -12.241195 -4.243258 -23.408348 5.663717 5.721967 0.521131 -0.369803 -2.313123 11.457290 
11.121976 53.169552 -47.694317 -1.679688 19.326170 -95.973328 23.265388 -0.888799 -9.455470 -7.640848 -1.996101 -2.905098 51.562500 8.076172 2.618559 -58.535160 -9.785157 29.267580 0.955094 -25.000000 9.304698 5.457705 -23.035019 0.225595 -130.413467 2.155883 -2.176334 13.706861 -13.621179 -5.998519 -11.303246 25.000000 15.006110 1.503506 -36.650990 11.294637 109.714714 -1.040164 -3.034113 -40.537357 -37.279919 27.221144 -19.862627 15.756034 41.937443 22.773987 -5.295390 -2.657488 4.697124 4.283998 -8.381184 -13.540559 -3.492927 -21.357620 7.074507 5.698287 0.829894 -2.614251 -1.215398 11.737583 
12.192698 53.043022 -47.863281 -1.855469 18.271484 -98.815300 24.091885 -2.339733 -8.454021 -7.633127 -2.337811 -2.622295 51.562500 8.076172 2.618559 -55.937496 -10.742188 29.763805 1.193510 -25.000000 8.803460 3.592658 -16.034094 -0.559791 -124.734337 1.695371 -2.555321 12.344197 -10.343844 -4.587124 -10.995384 25.000000 14.537887 6.365483 -33.755123 5.403624 106.701363 -0.742525 -3.009132 -39.418533 -38.065594 22.974619 -23.085989 18.945484 35.703869 29.132761 -4.997819 -3.260716 8.915834 5.606607 -9.754767 -16.460943 -3.591517 -19.025259 12.906801 5.574579 1.273150 -2.730625 -0.770185 12.078074 
13.577109 52.497375 -47.721405 -1.650391 16.513672 -101.708984 25.138338 -4.002783 -6.854051 -7.269542 -2.847249 -2.224484 51.562500 8.076172 2.618559 -53.457027 -11.142578 29.128971 1.889712 -25.000000 8.764398 0.054281 -8.333843 -3.240619 -116.945656 1.295401 -2.505929 10.055251 -5.773608 -3.137152 -10.741947 25.000000 14.260471 10.348212 -28.591009 -0.326506 104.416725 -0.783944 -2.999450 -37.901882 -38.401440 18.000175 -26.621012 21.152159 27.868345 37.402172 -4.520267 -3.669551 9.690897 7.432763 -10.113485 -20.281761 -3.866557 -16.637608 21.548700 5.282099 2.324965 -3.799206 -0.177421 12.907798 
14.042953 51.730293 -47.598839 -1.269531 14.228516 -104.726563 25.296402 -5.295717 -4.749652 -7.101524 -2.501490 -1.805117 51.562500 8.076172 2.618559 -50.771484 -11.191407 27.185604 2.339568 -25.000000 8.693355 -3.926064 -0.496328 -6.411297 -109.351219 0.919659 -2.719796 8.630383 -1.787072 -2.187022 -10.157094 25.000000 13.690832 10.105139 -22.326557 -3.243964 104.241341 -0.806674 -2.989005 -36.208920 -38.272884 14.924910 -30.095928 22.849161 17.659901 46.565704 -4.056004 -4.485743 8.929043 10.109943 -9.574430 -21.606092 -3.484175 -14.077654 27.536160 4.833388 2.688070 -6.365711 0.343750 14.127218 
13.296511 51.295368 -47.608315 -0.898438 11.767579 -107.763672 23.976055 -6.021716 -2.213216 -7.480636 -1.308701 -1.001267 51.562500 8.076172 2.618559 -47.783203 -9.648438 23.388672 3.291498 -25.000000 9.368075 -7.164858 7.722813 -9.482235 -100.886360 0.536065 -2.714567 9.776329 -0.679839 -1.241269 -9.362967 25.000000 13.190462 6.568252 -16.602524 -3.208120 106.539261 -0.960330 -2.920461 -34.860756 -37.246822 13.276376 -30.835005 23.988890 10.445382 50.605400 -3.899952 -4.687924 7.491787 11.380925 -8.356449 -18.902660 -3.065403 -11.407992 28.236393 4.793984 2.738165 -9.934682 1.091558 14.655076 
12.238373 51.453518 -47.590458 -0.537109 9.833984 -110.839844 22.084669 -6.728808 0.801629 -7.856940 0.235935 -0.149790 51.562500 8.076172 2.618559 -45.585938 -6.298828 17.782133 4.092943 -25.000000 10.074554 -9.608583 17.039518 -11.561953 -92.613342 0.523477 -2.644320 11.261049 0.080112 -0.318320 -8.645804 25.000000 12.768003 1.800585 -10.903072 -2.912187 110.271828 -1.616305 -2.919754 -32.759586 -36.380226 12.567008 -26.909645 25.043470 8.958016 45.134796 -4.113914 -4.531763 3.658724 12.113249 -6.562325 -15.450219 -2.633892 -8.890256 26.477255 4.881557 2.571051 -9.730088 1.762026 15.712447 
11.192346 51.809372 -47.490726 -0.537109 8.427748 -113.982979 19.756624 -6.941384 4.013130 -8.395417 2.128785 0.573687 51.562500 8.076172 2.618559 -45.517578 -2.968750 11.435547 4.814632 -25.000000 10.588216 -10.068629 25.164316 -10.245313 -87.487213 0.091370 -2.638469 12.596928 0.509859 0.152394 -7.846770 25.000000 12.229028 -4.091608 -4.861990 -2.540707 114.675255 -1.578374 -2.918559 -31.217260 -35.171680 12.073766 -20.204473 25.936148 10.075532 34.596630 -4.675268 -3.235407 -2.266372 11.535296 -4.884854 -12.645488 -2.948939 -5.926510 24.383158 5.234234 1.764479 -7.970985 2.643482 16.418100 
10.230328 52.315487 -47.201752 -1.250000 8.427734 -117.254433 17.923368 -6.704254 6.529301 -8.749931 3.683969 1.402864 51.562500 8.076172 2.618559 -48.671875 -0.605469 5.019540 5.542283 -25.000000 11.180956 -8.256978 31.992907 -4.749207 -85.915222 0.120492 -2.865989 12.755743 1.788428 0.608935 -7.327492 25.000000 11.984056 -10.622407 1.601630 -1.933761 119.621094 -1.875667 -2.487940 -29.948378 -34.146843 11.869371 -15.496078 26.127769 9.500783 25.782028 -5.141060 -2.936191 -3.961153 11.261788 -4.600472 -11.648327 -3.886255 -3.574907 22.080658 5.320176 1.542094 -4.177613 1.404702 15.313332 
9.291197 52.805782 -46.728256 -2.851563 9.472656 -120.703117 16.982538 -6.136542 8.090505 -8.752917 4.719301 1.770721 51.562500 8.076172 2.618559 -54.667973 1.640625 -0.322266 6.264766 -25.000000 11.844082 -5.396749 37.421383 2.031756 -85.915222 0.120492 -2.865989 12.143254 3.405596 0.523439 -6.616776 25.000000 11.534335 -17.623062 9.496652 -1.819417 124.222725 -2.064818 -2.412856 -28.806438 -33.408287 11.740795 -14.967317 24.495924 4.516943 20.661716 -5.342034 -2.442788 0.477737 10.012455 -5.849001 -11.882141 -5.155198 -1.373375 19.443340 5.429653 1.786385 -0.674951 0.454442 14.389215 
8.412653 53.161640 -46.031742 -4.648438 10.332031 -124.228516 16.757893 -5.077743 8.786637 -8.401544 5.059042 1.864871 51.562500 8.076172 2.618559 -62.333988 2.939453 -4.062500 6.761945 -25.000000 12.341921 -1.764167 40.533024 8.840587 -86.790535 -0.081293 -3.147449 11.858265 4.620157 0.394424 -5.979571 25.000000 11.189157 -25.191393 17.874800 -2.682084 127.958878 -2.514799 -1.943478 -28.844326 -33.281391 11.753830 -16.018938 21.886826 -1.358345 17.485846 -5.448430 -2.124796 7.312034 7.486701 -7.290195 -12.535666 -6.746217 0.513070 16.947229 5.200243 2.016692 1.929488 0.491727 13.534774 
